<svg width="512" height="512" viewBox="0 0 512 512" fill="none" xmlns="http://www.w3.org/2000/svg">
<path d="M234.15 20.4215C246.449 8.92661 265.551 8.92662 277.85 20.4215L346.575 84.6528C350.144 87.9887 354.43 90.4631 359.104 91.8862L449.092 119.288C465.196 124.192 474.747 140.735 470.942 157.134L449.679 248.767C448.574 253.526 448.574 258.474 449.679 263.233L470.942 354.866C474.747 371.265 465.196 387.808 449.092 392.712L359.104 420.114C354.43 421.537 350.144 424.011 346.575 427.347L277.85 491.578C265.551 503.073 246.449 503.073 234.15 491.578L165.425 427.347C161.856 424.011 157.57 421.537 152.896 420.114L62.9082 392.712C46.8037 387.808 37.2526 371.265 41.058 354.866L62.3215 263.233C63.4258 258.474 63.4258 253.526 62.3215 248.767L41.058 157.134C37.2526 140.735 46.8037 124.192 62.9082 119.288L152.896 91.8862C157.57 90.4631 161.856 87.9887 165.425 84.6528L234.15 20.4215Z" fill="white"/>
</svg>
