<svg width="512" height="512" viewBox="0 0 512 512" fill="none" xmlns="http://www.w3.org/2000/svg">
<circle cx="256" cy="256" r="128" fill="#249C19"/>
<path d="M346.51 165.49C326.585 145.566 300.644 132.773 272.707 129.095C244.771 125.417 216.402 131.06 192 145.149L220.8 195.032C234.221 187.283 249.824 184.179 265.189 186.202C280.554 188.225 294.822 195.261 305.78 206.22L346.51 165.49Z" fill="#C6C6C6" fill-opacity="0.75"/>
<path d="M132.361 222.871C125.069 250.088 126.96 278.951 137.743 304.983C148.526 331.016 167.598 352.763 192 366.851L220.8 316.968C207.379 309.219 196.889 297.259 190.959 282.941C185.028 268.623 183.988 252.749 187.999 237.779L132.361 222.871Z" fill="#C6C6C6" fill-opacity="0.75"/>
<path d="M288.896 379.638C316.113 372.346 340.163 356.276 357.317 333.921C374.47 311.567 383.767 284.177 383.767 256L326.167 256C326.167 271.497 321.054 286.562 311.619 298.857C302.185 311.152 288.958 319.99 273.988 324.001L288.896 379.638Z" fill="#C6C6C6" fill-opacity="0.75"/>
<path d="M512 256C512 397.385 397.385 512 256 512C114.615 512 0 397.385 0 256C0 114.615 114.615 0 256 0C397.385 0 512 114.615 512 256ZM153.6 256C153.6 312.554 199.446 358.4 256 358.4C312.554 358.4 358.4 312.554 358.4 256C358.4 199.446 312.554 153.6 256 153.6C199.446 153.6 153.6 199.446 153.6 256Z" fill="#DFDFDF"/>
<circle cx="256" cy="256" r="32" fill="#C6C6C6" fill-opacity="0.75"/>
<path d="M462 256C462 369.771 369.771 462 256 462C142.229 462 50 369.771 50 256C50 142.229 142.229 50 256 50C369.771 50 462 142.229 462 256ZM91.2 256C91.2 347.017 164.983 420.8 256 420.8C347.017 420.8 420.8 347.017 420.8 256C420.8 164.983 347.017 91.2 256 91.2C164.983 91.2 91.2 164.983 91.2 256Z" fill="#C6C6C6"/>
</svg>
