<svg width="512" height="512" viewBox="0 0 512 512" fill="none" xmlns="http://www.w3.org/2000/svg">
<path d="M256 512C222.382 512 189.092 505.378 158.033 492.513C126.974 479.648 98.7524 460.791 74.9807 437.019C51.2089 413.248 32.352 385.026 19.4868 353.967C6.62163 322.908 -2.93901e-06 289.618 0 256L153.6 256C153.6 269.447 156.249 282.763 161.395 295.187C166.541 307.611 174.084 318.899 183.592 328.408C193.101 337.917 204.389 345.459 216.813 350.605C229.237 355.751 242.553 358.4 256 358.4L256 512Z" fill="#DFDFDF"/>
<path d="M256 9.96901e-05C289.619 0.000104099 322.908 6.62174 353.967 19.487C385.026 32.3522 413.248 51.209 437.02 74.9808C460.791 98.7526 479.648 126.974 492.513 158.033C505.379 189.093 512 222.382 512 256L358.4 256C358.4 242.553 355.751 229.237 350.605 216.813C345.459 204.39 337.917 193.101 328.408 183.592C318.899 174.084 307.611 166.541 295.187 161.395C282.763 156.249 269.448 153.6 256 153.6L256 9.96901e-05Z" fill="#DFDFDF"/>
<path d="M512 256C512 289.619 505.378 322.908 492.513 353.967C479.648 385.027 460.791 413.248 437.019 437.02C413.247 460.791 385.026 479.648 353.967 492.513C322.907 505.379 289.618 512 256 512L256 358.4C269.447 358.4 282.763 355.752 295.187 350.606C307.61 345.459 318.899 337.917 328.407 328.408C337.916 318.899 345.459 307.611 350.605 295.187C355.751 282.763 358.4 269.448 358.4 256L512 256Z" fill="#DFDFDF" fill-opacity="0.5"/>
<path d="M0.00011088 256C0.000109812 222.382 6.62175 189.092 19.487 158.033C32.3522 126.974 51.209 98.7524 74.9808 74.9806C98.7526 51.2088 126.974 32.352 158.033 19.4868C189.093 6.62162 222.382 -1.55986e-05 256 -1.11901e-05L256 153.6C242.553 153.6 229.237 156.249 216.813 161.395C204.39 166.541 193.101 174.084 183.592 183.592C174.084 193.101 166.541 204.389 161.395 216.813C156.249 229.237 153.6 242.553 153.6 256L0.00011088 256Z" fill="#DFDFDF" fill-opacity="0.5"/>
<circle cx="256" cy="256" r="64" fill="#D9D9D9"/>
</svg>
