<svg width="512" height="512" viewBox="0 0 512 512" fill="none" xmlns="http://www.w3.org/2000/svg">
<path d="M284.037 336C271.721 357.333 240.929 357.333 228.612 336L62.3349 47.9999C50.0181 26.6666 65.4141 -3.4028e-05 90.0477 -3.18745e-05L422.601 -2.8017e-06C447.235 -6.48162e-07 462.631 26.6667 450.314 48L284.037 336Z" fill="white"/>
<path d="M284.037 496C271.721 517.333 240.929 517.333 228.612 496L62.3349 208C50.0181 186.667 65.4141 160 90.0477 160L422.601 160C447.235 160 462.631 186.667 450.314 208L284.037 496Z" fill="white"/>
<path fill-rule="evenodd" clip-rule="evenodd" d="M376.413 512H136.236L62.3349 384C50.0181 362.667 65.4141 336 90.0478 336L422.602 336C447.235 336 462.631 362.667 450.314 384L376.413 512Z" fill="white"/>
</svg>
