<svg width="725" height="725" viewBox="0 0 725 725" fill="none" xmlns="http://www.w3.org/2000/svg">
<path fill-rule="evenodd" clip-rule="evenodd" d="M452.548 90.5097C402.561 40.5226 321.516 40.5226 271.529 90.5097L90.5096 271.529C40.5225 321.516 40.5225 402.561 90.5096 452.548L271.529 633.568C321.516 683.555 402.561 683.555 452.548 633.568L633.568 452.548C683.555 402.561 683.555 321.516 633.568 271.529L452.548 90.5097ZM407.293 226.274C382.3 201.281 341.777 201.281 316.784 226.274L226.274 316.784C201.281 341.777 201.281 382.3 226.274 407.293L316.784 497.803C341.777 522.797 382.3 522.797 407.293 497.803L497.803 407.293C522.797 382.3 522.797 341.777 497.803 316.784L407.293 226.274Z" fill="white"/>
<rect x="362.039" y="291.328" width="100" height="100" rx="32" transform="rotate(45 362.039 291.328)" fill="white"/>
</svg>
